# xmcd
#
# Track frame offsets:
# 150
# 24042
# 55930
# 88195
# 114507
# 151352
# 181080
# 214117
# 245037
# 275327
# 307719
# 328567
#
# Disc length: 4737 seconds
#
# Revision: 3
# Processed by: cddbd v1.4PL0 Copyright (c) Steve Scherf et al.
# Submitted via: Axialis_AX_CDPlayer 2.6
#
DISCID=95127f0c
DTITLE=Various Artist - Trancemaster 2008 [CD2)
DYEAR=1900
DGENRE=
TTITLE0=Collusion - Impetuous (Extended Version)
TTITLE1=Gaia - 4 Elements (Extended Version)
TTITLE2=Smiter - Both Places
TTITLE3=Dragon - The Dragon (Fridge Mix)
TTITLE4=Fire and Ice - Lost Emotions 2001
TTITLE5=Dee Mark - Moonwalker
TTITLE6=Apollo - Dance
TTITLE7=Organza - Aloha
TTITLE8=Marco Zaffarano - Weltklang (Speech Lab Remix)
TTITLE9=Dogma - Dimension (Clubmix)
TTITLE10=Plastic Boy - Can You Feel It
TTITLE11=Threesome - Mohave
EXTD=3024102-2
EXTT0=
EXTT1=
EXTT2=
EXTT3=
EXTT4=
EXTT5=
EXTT6=
EXTT7=
EXTT8=
EXTT9=
EXTT10=
EXTT11=
PLAYORDER=
